<svg xmlns="http://www.w3.org/2000/svg" version="1.1" xmlns:xlink="http://www.w3.org/1999/xlink" viewBox="0 0 200 200"><rect width="200" height="200" fill="url('#gradient')"></rect><defs><linearGradient id="gradient" gradientTransform="rotate(291 0.5 0.5)"><stop offset="0%" stop-color="#ffffff"></stop><stop offset="100%" stop-color="#0099ff"></stop></linearGradient></defs><g><g fill="#ffeb54" transform="matrix(4.00234512409615,0,0,4.00234512409615,-4.2856745107905,129.63959140471934)" stroke="#ec7313" stroke-width="0"><path d="M12.96-14.22L12.96 0L9.55 0L9.55-5.94L4.50-5.94L4.50 0L1.07 0L1.07-14.22L4.50-14.22L4.50-8.57L9.55-8.57L9.55-14.22L12.96-14.22ZM24.22 0L20.93 0Q20.75-0.32 20.62-0.95L20.62-0.95Q19.71 0.20 18.08 0.20L18.08 0.20Q16.58 0.20 15.54-0.71Q14.49-1.61 14.49-2.98L14.49-2.98Q14.49-4.70 15.76-5.58Q17.03-6.46 19.45-6.46L19.45-6.46L20.47-6.46L20.47-7.01Q20.47-8.47 19.21-8.47L19.21-8.47Q18.04-8.47 18.04-7.31L18.04-7.31L14.75-7.31Q14.75-8.85 16.05-9.80Q17.35-10.76 19.38-10.76Q21.40-10.76 22.57-9.78Q23.74-8.79 23.77-7.07L23.77-7.07L23.77-2.39Q23.79-0.94 24.22-0.17L24.22-0.17L24.22 0ZM18.87-2.15L18.87-2.15Q19.48-2.15 19.89-2.41Q20.29-2.68 20.47-3.01L20.47-3.01L20.47-4.70L19.51-4.70Q17.79-4.70 17.79-3.15L17.79-3.15Q17.79-2.71 18.10-2.43Q18.40-2.15 18.87-2.15ZM30.70 0.20L30.70 0.20Q28.27 0.20 26.77-1.25Q25.26-2.71 25.26-5.03L25.26-5.03L25.26-5.30Q25.26-6.92 25.86-8.16Q26.46-9.40 27.62-10.08Q28.77-10.76 30.35-10.76L30.35-10.76Q32.58-10.76 33.87-9.38Q35.16-8.00 35.16-5.53L35.16-5.53L35.16-4.25L28.61-4.25Q28.79-3.36 29.38-2.85Q29.98-2.34 30.93-2.34L30.93-2.34Q32.49-2.34 33.37-3.44L33.37-3.44L34.87-1.66Q34.26-0.81 33.13-0.31Q32.00 0.20 30.70 0.20ZM30.33-8.22L30.33-8.22Q28.89-8.22 28.61-6.31L28.61-6.31L31.93-6.31L31.93-6.56Q31.95-7.35 31.53-7.79Q31.11-8.22 30.33-8.22ZM43.03 0L40.72-3.94L39.79-3.01L39.79 0L36.50 0L36.50-15.01L39.79-15.01L39.79-7.04L40.13-7.48L42.61-10.57L46.55-10.57L42.85-6.22L46.80 0L43.03 0ZM50.89-10.57L50.89 0L47.59 0L47.59-10.57L50.89-10.57ZM47.39-13.29L47.39-13.29Q47.39-13.99 47.90-14.44Q48.41-14.89 49.22-14.89Q50.03-14.89 50.54-14.44Q51.04-13.99 51.04-13.29Q51.04-12.59 50.54-12.14Q50.03-11.69 49.22-11.69Q48.41-11.69 47.90-12.14Q47.39-12.59 47.39-13.29Z"></path></g></g></svg>